<?xml version="1.0" encoding="iso-8859-1"?>
<!-- Uploaded to: SVG Repo, www.svgrepo.com, Generator: SVG Repo Mixer Tools -->
<svg height="800px" width="800px" version="1.1" id="Layer_1" xmlns="http://www.w3.org/2000/svg" xmlns:xlink="http://www.w3.org/1999/xlink" 
	 viewBox="0 0 512 512" xml:space="preserve">
<path style="fill:#E1EAF6;" d="M498.864,324.161v58.48c0,13.871-11.244,25.128-25.128,25.128H38.264
	c-13.884,0-25.128-11.257-25.128-25.128v-58.48c0-13.884,11.244-25.128,25.128-25.128h29.897h40.287h295.105h40.287h29.897
	C487.62,299.032,498.864,310.276,498.864,324.161z"/>
<g>
	<path style="fill:#9DA6BA;" d="M443.839,220.757v78.275h-40.287v-78.275c0-11.126,9.024-20.137,20.15-20.137
		c5.556,0,10.6,2.259,14.239,5.898C441.58,210.157,443.839,215.201,443.839,220.757z"/>
	<path style="fill:#9DA6BA;" d="M108.448,220.757v78.275H68.161v-78.275c0-11.126,9.011-20.137,20.137-20.137
		c5.556,0,10.6,2.259,14.252,5.898C106.188,210.157,108.448,215.201,108.448,220.757z"/>
</g>
<path d="M231.924,340.266H88.299c-7.253,0-13.136,5.882-13.136,13.136c0,7.254,5.882,13.136,13.136,13.136h143.625
	c7.253,0,13.136-5.882,13.136-13.136C245.059,346.148,239.177,340.266,231.924,340.266z"/>
<path d="M296.722,340.266h-23.644c-7.253,0-13.136,5.882-13.136,13.136c0,7.254,5.882,13.136,13.136,13.136h23.644
	c7.253,0,13.136-5.882,13.136-13.136C309.857,346.148,303.975,340.266,296.722,340.266z"/>
<path d="M360.206,340.266h-23.644c-7.254,0-13.136,5.882-13.136,13.136c0,7.254,5.882,13.136,13.136,13.136h23.644
	c7.253,0,13.136-5.882,13.136-13.136C373.342,346.148,367.46,340.266,360.206,340.266z"/>
<path d="M423.704,340.266H400.06c-7.254,0-13.136,5.882-13.136,13.136c0,7.254,5.882,13.136,13.136,13.136h23.644
	c7.253,0,13.136-5.882,13.136-13.136C436.839,346.148,430.957,340.266,423.704,340.266z"/>
<path d="M55.026,285.897H38.264C17.164,285.897,0,303.061,0,324.161v58.48c0,21.1,17.164,38.264,38.264,38.264h435.472
	c21.1,0,38.264-17.164,38.264-38.264v-58.48c0-21.1-17.164-38.264-38.264-38.264h-16.761v-65.14c0-8.888-3.461-17.243-9.745-23.527
	c-3.037-3.037-6.561-5.408-10.392-7.054v-85.945c0-7.253-5.882-13.136-13.136-13.136c-7.253,0-13.136,5.882-13.136,13.136v85.959
	c-11.839,5.103-20.15,16.882-20.15,30.567v65.14H121.585v-65.14c0-8.888-3.461-17.243-9.762-23.544
	c-3.04-3.028-6.563-5.393-10.388-7.037v-85.945c0-7.253-5.882-13.136-13.136-13.136c-7.253,0-13.136,5.882-13.136,13.136v85.962
	c-11.833,5.104-20.137,16.882-20.137,30.564V285.897z M485.729,324.161v58.48c0,6.612-5.38,11.993-11.993,11.993H38.264
	c-6.612,0-11.993-5.38-11.993-11.993v-58.48c0-6.612,5.38-11.993,11.993-11.993h29.898h40.287h295.105h40.287h29.897
	C480.35,312.168,485.729,317.548,485.729,324.161z M93.262,215.808c0.766,0.766,2.052,2.427,2.052,4.951v65.139H81.298v-65.139
	c0-3.861,3.141-7.001,7.001-7.001C90.828,213.756,92.504,215.051,93.262,215.808z M428.653,215.808
	c0.766,0.766,2.052,2.427,2.052,4.951v65.139h-14.016v-65.139c0-3.861,3.147-7.001,7.014-7.001
	C426.226,213.756,427.887,215.041,428.653,215.808z"/>
</svg>